<svg width="18" height="18" viewBox="0 0 18 18" fill="none" xmlns="http://www.w3.org/2000/svg">
<path fill-rule="evenodd" clip-rule="evenodd" d="M9.00012 1.70866C7.38929 1.70866 6.08345 3.0145 6.08345 4.62533C6.08345 6.23616 7.38929 7.54199 9.00012 7.54199C10.6109 7.54199 11.9168 6.23616 11.9168 4.62533C11.9168 3.0145 10.6109 1.70866 9.00012 1.70866ZM4.41678 4.62533C4.41678 2.09402 6.46881 0.0419922 9.00012 0.0419922C11.5314 0.0419922 13.5835 2.09402 13.5835 4.62533C13.5835 7.15663 11.5314 9.20866 9.00012 9.20866C6.46881 9.20866 4.41678 7.15663 4.41678 4.62533Z" fill="#424551"/>
<path fill-rule="evenodd" clip-rule="evenodd" d="M4.08684 11.7087C3.50907 11.7087 3.05748 11.99 2.87417 12.3942C2.62045 12.9536 2.3907 13.6196 2.33649 14.2513C2.31225 14.5337 2.42999 14.7418 2.59222 14.8426C3.44985 15.3753 5.43711 16.292 9.00012 16.292C12.5631 16.292 14.5504 15.3753 15.408 14.8426C15.5702 14.7418 15.688 14.5337 15.6637 14.2513C15.6095 13.6196 15.3798 12.9536 15.1261 12.3942C14.9428 11.99 14.4912 11.7087 13.9134 11.7087H4.08684ZM1.35631 11.7058C1.86293 10.5887 2.99421 10.042 4.08684 10.042H13.9134C15.006 10.042 16.1373 10.5887 16.6439 11.7058C16.9349 12.3474 17.2472 13.2099 17.3243 14.1088C17.3946 14.9273 17.0544 15.7819 16.2875 16.2583C15.1595 16.959 12.8664 17.9587 9.00012 17.9587C5.13379 17.9587 2.8407 16.959 1.71275 16.2583C0.945871 15.7819 0.605671 14.9273 0.675924 14.1088C0.753072 13.2099 1.06532 12.3474 1.35631 11.7058Z" fill="#424551"/>
</svg>
